<svg width="65" height="32" viewBox="0 0 65 32" fill="none" xmlns="http://www.w3.org/2000/svg">
<g clip-path="url(#clip0_303_723)">
<path d="M25.8414 30.355L24.7638 29.3588L21.1042 29.2774C17.9934 29.2164 17.3225 29.1351 16.5702 28.7488C14.9437 27.9152 14.7607 27.4679 14.6794 23.7676C14.5574 19.437 14.7404 18.2171 15.5536 17.2818C16.4482 16.2449 17.4648 15.9806 21.0432 15.8586C25.9634 15.6756 28.2609 16.2652 28.9521 17.9324C29.3384 18.888 29.4198 26.2074 29.0335 27.2036C28.9115 27.5493 28.5455 28.0372 28.2202 28.3015L27.6509 28.7488L28.9115 29.9484C29.6028 30.599 30.172 31.1886 30.172 31.2293C30.172 31.2903 29.4401 31.3309 28.5455 31.3106C26.9393 31.3513 26.8987 31.3309 25.8414 30.355ZM21.3481 26.2887L20.2909 25.2721H21.9784C23.6456 25.2721 23.7066 25.2925 24.7028 26.1667C26.248 27.5289 26.3294 27.3459 26.3294 22.69C26.3294 17.6681 26.5733 17.9528 22.1614 17.9528C17.7495 17.9528 17.9934 17.6884 17.9934 22.6087C17.9934 27.3053 17.9934 27.3053 20.6365 27.3053H22.385L21.3481 26.2887ZM0 28.3422V27.3053H4.45261C9.86081 27.3053 9.96246 27.2646 9.86081 25.3128C9.77948 23.6253 9.45417 23.4829 6.18079 23.4829C3.23272 23.4829 1.72818 23.0966 0.792931 22.1207C0.243979 21.5514 0.121989 21.2261 0.0609947 20.0266C-0.0406631 18.2374 0.426963 17.2818 1.80951 16.5092C2.78542 15.9603 2.96841 15.9399 7.94964 15.8586L13.0732 15.7773V16.8142V17.8511L8.74257 17.8714C6.36378 17.8918 4.14764 17.9731 3.84266 18.0544C3.33438 18.1967 3.27338 18.3391 3.21239 19.5793C3.11073 21.5108 3.21239 21.5514 7.19737 21.6938C10.1658 21.7954 10.5927 21.8564 11.4873 22.3647C12.8292 23.117 13.0935 23.6863 13.0122 25.6584C12.9309 27.4679 12.6666 27.9356 11.1417 28.7488C10.3081 29.1961 9.84048 29.2368 5.12355 29.2978L0 29.3791V28.3422ZM33.913 29.0945C32.6322 28.7895 31.6156 28.0982 31.2699 27.2646C31.0463 26.7157 30.965 25.2111 30.965 21.2465V15.9603H32.4288H33.8927L33.9537 21.2465C34.0147 26.3294 34.035 26.553 34.4823 26.9393C34.9093 27.2849 35.4989 27.3256 39.4432 27.3256H43.9162V28.3422V29.3588L39.3619 29.3384C36.8408 29.3181 34.401 29.1961 33.913 29.0945Z" fill="#E48C00"/>
<path d="M46.9659 28.1796C47.0675 28.1796 47.1489 28.1592 47.1895 28.1186C47.2302 28.0779 47.2505 27.9966 47.2505 27.9152C47.2505 27.8136 47.2302 27.7526 47.1895 27.7119C47.1489 27.6713 47.0675 27.6509 46.9659 27.6509H46.7626V28.1999H46.9659M46.7626 28.5659V29.3791H46.2543V27.224H47.0269C47.2912 27.224 47.4742 27.2646 47.5962 27.3663C47.7181 27.4679 47.7791 27.6103 47.7791 27.8136C47.7791 27.9559 47.7385 28.0779 47.6775 28.1592C47.6165 28.2405 47.5148 28.3219 47.3928 28.3625C47.4538 28.3829 47.5352 28.4235 47.5758 28.4845C47.6368 28.5455 47.6978 28.6472 47.7385 28.7692L47.9418 29.3791H47.4742L47.2302 28.8505C47.1895 28.7488 47.1285 28.6675 47.0879 28.6268C47.0472 28.5862 46.9659 28.5659 46.8846 28.5659H46.7626Z" fill="#E48C00"/>
<path d="M16.8751 12.5446V11.772L20.6772 11.711C24.2555 11.6703 24.4995 11.6297 24.7435 11.3247C24.8858 11.1417 24.9671 10.7961 24.9468 10.5724L24.9061 10.1455L21.6937 10.0641C18.705 9.9828 18.4407 9.96247 17.8511 9.57617C16.8548 8.96622 16.7938 8.74258 16.7938 5.87583V3.31405H17.8511H18.9083V5.73351C18.9083 8.94589 18.7457 8.80357 22.263 8.80357H24.9061L24.9468 5.97748L24.9874 3.1514H26.0853H27.1832V7.15672C27.1832 11.8736 27.1223 12.077 25.7397 12.7682C24.9264 13.1749 24.7638 13.1952 20.8805 13.2359L16.8751 13.3172V12.5446Z" fill="#015F8B"/>
<path d="M6.64844 10.2268C6.36379 10.1454 6.01816 9.94213 5.87584 9.77948C5.73351 9.61682 4.83893 7.76665 3.90367 5.69283L2.19582 1.89083V6.0588V10.2268H1.09792H1.48514e-05V5.63184C1.48514e-05 0.30497 -0.0203167 0.426959 1.44356 0.121986C2.52113 -0.101662 3.29373 0.0813224 3.84268 0.670938C4.02566 0.874253 4.89992 2.70409 5.75385 4.71692C6.60777 6.72974 7.38037 8.39693 7.42103 8.39693C7.4617 8.39693 8.2343 6.75007 9.10855 4.75758C10.0235 2.66343 10.9181 0.894585 11.1824 0.630275C11.8736 -0.0813301 12.8699 -0.182988 14.2118 0.30497C14.9844 0.589611 15.0454 0.996243 15.0454 5.77416V10.2471H13.9475H12.8496V6.07913C12.8496 1.19956 13.0732 1.17923 10.8164 6.20112C10.0438 7.90897 9.31187 9.49483 9.16955 9.69815C9.02723 9.90147 8.64093 10.1454 8.31562 10.2471C7.58369 10.4301 7.36004 10.4301 6.64844 10.2268Z" fill="#015F8B"/>
<path d="M64.0445 25.8211C63.5565 25.5364 62.4993 25.0485 61.6657 24.7435C59.3682 23.8896 57.64 22.629 57.5384 21.6938C57.4977 21.4091 59.1649 20.6975 60.6084 20.3722C61.5843 20.1486 61.808 20.0469 61.625 19.8639C61.076 19.3353 57.945 17.9528 56.6641 17.6681C55.9118 17.5055 55.1189 17.2412 54.8953 17.0988C54.4886 16.8142 53.2484 14.9437 51.3372 11.6703C50.0157 9.39318 48.6941 7.88865 46.6203 6.32312C43.9365 4.26963 41.8017 3.41571 39.2806 3.41571C38.569 3.41571 37.8574 3.25305 37.2678 2.92775C35.4786 1.97217 33.9131 1.74852 33.7301 2.41946C33.6284 2.78543 33.8521 3.07007 35.4583 4.94057C36.0276 5.59118 36.8002 6.83141 37.3085 7.90898C37.8574 9.10854 38.447 10.0235 38.9553 10.5114C39.8702 11.3857 39.8906 11.4467 39.5449 13.0325C39.179 14.781 39.1993 15.8383 39.6059 17.2412C39.9719 18.4814 40.8258 19.9046 41.2731 19.9859C41.4154 20.0063 41.4968 19.559 41.4968 18.766C41.4968 17.5055 41.7407 16.5296 42.249 15.7976C42.493 15.452 42.5743 15.5333 43.3469 16.8549C44.3838 18.644 46.1933 20.9618 47.3929 21.9988C48.7551 23.178 47.6979 22.629 45.8274 21.2058C44.9328 20.5145 43.9162 19.498 43.5299 18.949C42.8996 17.9934 42.859 17.9731 42.7776 18.4611C42.737 18.7457 42.7166 19.2743 42.737 19.62C42.8183 20.6772 41.8627 21.3481 40.8258 20.9415C40.2565 20.7179 39.4433 19.62 38.9756 18.4407C38.4064 16.9972 38.2437 15.2283 38.5283 13.3375C38.752 11.7313 38.752 11.711 38.325 11.3247C37.6948 10.7757 36.9628 9.5965 36.1292 7.82765C35.7023 6.91273 35.0313 5.91649 34.462 5.30654C33.9334 4.75759 33.3641 4.12731 33.2015 3.924C32.7542 3.33438 32.6729 2.13482 33.0388 1.56553C33.6284 0.630282 36.0276 0.813266 37.9184 1.91117C38.3454 2.17548 38.996 2.29747 39.7076 2.29747C40.3175 2.29747 41.2324 2.3788 41.7204 2.48045C43.8349 2.94808 46.9863 4.81858 49.1414 6.87207C50.585 8.25462 51.1339 9.00688 53.96 13.5612L55.5865 16.2043L57.0097 16.6719C59.5918 17.5055 63.3328 19.8029 63.1905 20.4739C63.1499 20.6365 62.7432 20.8805 62.2553 21.0228C60.1001 21.6734 59.3072 21.9988 59.3885 22.1817C59.4495 22.3037 60.2018 22.7714 61.0964 23.239C62.5399 24.0116 65.0814 26.0244 64.8984 26.2684C64.9594 26.2887 64.5324 26.1057 64.0445 25.8211Z" fill="#015F8B"/>
<path d="M39.8092 6.36379C39.0163 5.36754 39.0163 5.38787 39.5652 5.32688C40.1955 5.24555 40.5818 5.57085 40.6428 6.26213C40.7241 7.09572 40.4191 7.13638 39.8092 6.36379Z" fill="#015F8B"/>
</g>
<defs>
<clipPath id="clip0_303_723">
<rect width="65" height="31.3716" fill="white"/>
</clipPath>
</defs>
</svg>
