<svg width="65" height="36" viewBox="0 0 65 36" fill="none" xmlns="http://www.w3.org/2000/svg">
<g clip-path="url(#clip0_303_689)">
<mask id="mask0_303_689" style="mask-type:luminance" maskUnits="userSpaceOnUse" x="0" y="0" width="65" height="35">
<path d="M0.91394 17.5294C0.91394 26.7058 15.0558 34.1448 32.4999 34.1448C49.9441 34.1448 64.086 26.7058 64.086 17.5294C64.086 8.35315 49.9441 0.913967 32.4999 0.913967C15.0558 0.913967 0.91394 8.35315 0.91394 17.5294Z" fill="white"/>
</mask>
<g mask="url(#mask0_303_689)">
<path d="M0.91394 17.5294C0.91394 26.7058 15.0558 34.1448 32.4999 34.1448C49.9441 34.1448 64.086 26.7058 64.086 17.5294C64.086 8.35315 49.9441 0.913967 32.4999 0.913967C15.0558 0.913967 0.91394 8.35315 0.91394 17.5294Z" fill="url(#paint0_radial_303_689)"/>
</g>
<mask id="mask1_303_689" style="mask-type:luminance" maskUnits="userSpaceOnUse" x="-1" y="-1" width="67" height="38">
<path d="M-0.4021 -0.978035H65.4021V36.0368H-0.4021V-0.978035Z" fill="white"/>
</mask>
<g mask="url(#mask1_303_689)">
<path d="M32.5 32.9112C49.2628 32.9112 62.8522 26.0245 62.8522 17.5293C62.8522 9.03431 49.2628 2.14749 32.5 2.14749C15.7372 2.14749 2.14783 9.03431 2.14783 17.5293C2.14783 26.0245 15.7372 32.9112 32.5 32.9112Z" fill="#777BB3"/>
</g>
<mask id="mask2_303_689" style="mask-type:luminance" maskUnits="userSpaceOnUse" x="-1" y="-1" width="67" height="38">
<path d="M-0.4021 -0.978035H65.4021V36.0368H-0.4021V-0.978035Z" fill="white"/>
</mask>
<g mask="url(#mask2_303_689)">
<path d="M18.075 19.4365C19.4533 19.4365 20.4823 19.1823 21.1334 18.6812C21.7775 18.1853 22.2224 17.3261 22.4555 16.1276C22.6729 15.0073 22.5901 14.2251 22.2095 13.8029C21.8202 13.3718 20.9787 13.1531 19.7083 13.1531H17.5056L16.2845 19.4365H18.075ZM10.8705 27.1765C10.7682 27.1765 10.6711 27.1308 10.6061 27.0517C10.541 26.9728 10.5146 26.8688 10.5341 26.7684L13.7704 10.1173C13.8017 9.95636 13.9428 9.84006 14.1069 9.84006H21.0819C23.274 9.84006 24.9056 10.4353 25.9312 11.6093C26.9622 12.7896 27.2806 14.4394 26.8774 16.5128C26.7134 17.3575 26.4312 18.142 26.0388 18.8444C25.6459 19.5475 25.1267 20.1982 24.4952 20.7785C23.7394 21.4859 22.884 21.9989 21.9549 22.3007C21.0406 22.5985 19.8664 22.7496 18.465 22.7496H15.6407L14.8341 26.8991C14.8028 27.0602 14.6619 27.1765 14.4978 27.1765H10.8705Z" fill="black"/>
<path d="M17.7881 13.4958H19.7083C21.2416 13.4958 21.7742 13.8322 21.9551 14.0327C22.2554 14.3656 22.312 15.0676 22.1191 16.0625C21.9022 17.1764 21.5003 17.9661 20.9243 18.4096C20.3346 18.8636 19.3759 19.0937 18.075 19.0937H16.7002L17.7881 13.4958ZM21.0819 9.49728H14.1067C13.7786 9.49728 13.4966 9.72988 13.434 10.0519L10.1977 26.703C10.1586 26.904 10.2114 27.1118 10.3415 27.2698C10.4717 27.4278 10.6657 27.5192 10.8704 27.5192H14.4977C14.8259 27.5192 15.108 27.2866 15.1706 26.9645L15.9232 23.0922H18.465C19.9024 23.0922 21.1125 22.9355 22.0613 22.6265C23.037 22.3094 23.9347 21.7719 24.7293 21.0289C25.3864 20.4243 25.9277 19.7457 26.3378 19.0117C26.7481 18.2775 27.0428 17.4587 27.2139 16.5781C27.6383 14.3956 27.2935 12.6479 26.1892 11.3839C25.0957 10.132 23.3772 9.49728 21.0819 9.49728ZM15.8686 19.7792H18.075C19.5374 19.7792 20.6267 19.5037 21.3424 18.9527C22.0583 18.4016 22.5411 17.4819 22.792 16.193C23.032 14.9555 22.9227 14.0822 22.464 13.5735C22.0047 13.0648 21.0863 12.8103 19.7083 12.8103H17.2231L15.8686 19.7792ZM21.0819 10.1827C23.1802 10.1827 24.7109 10.7334 25.6731 11.8348C26.6351 12.9362 26.9248 14.4736 26.541 16.4474C26.383 17.2605 26.1158 18.0038 25.7396 18.6773C25.3629 19.3512 24.8711 19.9675 24.2633 20.5262C23.539 21.204 22.7344 21.687 21.849 21.9747C20.9636 22.2632 19.8359 22.4068 18.465 22.4068H15.358L14.4977 26.8337H10.8704L14.1067 10.1827H21.0819Z" fill="white"/>
<path d="M35.1942 22.7496C35.0918 22.7496 34.9948 22.7039 34.9298 22.6248C34.8646 22.5459 34.8382 22.442 34.8577 22.3415L36.2893 14.9741C36.4255 14.2734 36.3919 13.7705 36.1948 13.558C36.0742 13.4281 35.7118 13.2103 34.6403 13.2103H32.0468L30.2469 22.4722C30.2156 22.6333 30.0745 22.7496 29.9104 22.7496H26.3117C26.2094 22.7496 26.1124 22.7039 26.0473 22.6248C25.9822 22.5459 25.9558 22.4419 25.9753 22.3415L29.2116 5.69042C29.2429 5.52945 29.384 5.41315 29.548 5.41315H33.1467C33.2491 5.41315 33.346 5.45885 33.4112 5.53779C33.4763 5.61684 33.5027 5.72069 33.4831 5.82123L32.7022 9.84008H35.4922C37.6177 9.84008 39.059 10.2148 39.8985 10.9857C40.7542 11.7722 41.0211 13.0296 40.6921 14.7236L39.1864 22.4722C39.1551 22.6333 39.0141 22.7496 38.85 22.7496H35.1942Z" fill="black"/>
<path d="M33.1467 5.07034H29.548C29.2198 5.07034 28.9377 5.30294 28.8751 5.62499L25.6388 22.2761C25.5998 22.477 25.6525 22.6848 25.7828 22.8428C25.913 23.0008 26.107 23.0922 26.3117 23.0922H29.9104C30.2385 23.0922 30.5207 22.8596 30.5833 22.5376L32.3293 13.5529H34.6403C35.7099 13.5529 35.9344 13.7814 35.9435 13.7912C36.0084 13.861 36.0937 14.1843 35.9528 14.9086L34.5212 22.2761C34.4822 22.477 34.535 22.6848 34.6652 22.8428C34.7954 23.0008 34.9894 23.0922 35.1941 23.0922H38.8499C39.178 23.0922 39.4602 22.8596 39.5228 22.5376L41.0284 14.789C41.3818 12.9701 41.0795 11.6057 40.1304 10.7334C39.2246 9.90157 37.7075 9.49727 35.4922 9.49727H33.1178L33.8196 5.88661C33.8585 5.68565 33.8059 5.47773 33.6756 5.31985C33.5454 5.16185 33.3514 5.07034 33.1467 5.07034ZM33.1467 5.7558L32.2863 10.1827H35.4922C37.5094 10.1827 38.9008 10.5348 39.6665 11.2381C40.4323 11.9418 40.6617 13.0821 40.3557 14.6583L38.8499 22.4068H35.1941L36.6257 15.0394C36.7886 14.2014 36.7288 13.6297 36.4459 13.3249C36.1629 13.0201 35.561 12.8674 34.6403 12.8674H31.7641L29.9104 22.4068H26.3117L29.548 5.7558H33.1467Z" fill="white"/>
<path d="M46.3863 19.4365C47.7646 19.4365 48.7936 19.1823 49.4447 18.6812C50.0888 18.1854 50.5336 17.3262 50.7669 16.1276C50.9843 15.0073 50.9015 14.2251 50.5207 13.8029C50.1315 13.3718 49.29 13.1531 48.0196 13.1531H45.8169L44.5957 19.4365H46.3863ZM39.1818 27.1765C39.0796 27.1765 38.9825 27.1308 38.9175 27.0517C38.8524 26.9728 38.8259 26.8688 38.8454 26.7684L42.0817 10.1173C42.1131 9.95636 42.2541 9.84006 42.4182 9.84006H49.3931C51.5854 9.84006 53.2169 10.4353 54.2425 11.6093C55.2736 12.7895 55.5919 14.4393 55.1888 16.5128C55.0245 17.3575 54.7425 18.142 54.35 18.8444C53.9572 19.5475 53.4379 20.1982 52.8065 20.7785C52.0507 21.4859 51.1952 21.9989 50.2662 22.3007C49.3519 22.5985 48.1777 22.7496 46.7763 22.7496H43.9518L43.1456 26.8991C43.1142 27.0602 42.9732 27.1765 42.8091 27.1765H39.1818Z" fill="black"/>
<path d="M46.0994 13.4958H48.0196C49.5529 13.4958 50.0855 13.8322 50.2664 14.0327C50.5668 14.3656 50.6234 15.0676 50.4304 16.0624C50.2135 17.1764 49.8115 17.9661 49.2356 18.4096C48.6459 18.8636 47.6871 19.0937 46.3863 19.0937H45.0116L46.0994 13.4958ZM49.3931 9.49728H42.4181C42.09 9.49728 41.808 9.72988 41.7454 10.0519L38.5091 26.703C38.47 26.904 38.5228 27.1118 38.6529 27.2698C38.7831 27.4278 38.9771 27.5192 39.1818 27.5192H42.8091C43.1372 27.5192 43.4194 27.2866 43.482 26.9645L44.2345 23.0922H46.7763C48.2137 23.0922 49.4238 22.9355 50.3726 22.6265C51.3483 22.3094 52.2463 21.7718 53.0408 21.0287C53.6979 20.4242 54.239 19.7457 54.6491 19.0117C55.0594 18.2775 55.3541 17.4587 55.5252 16.5781C55.9496 14.3955 55.6048 12.6478 54.5005 11.3838C53.407 10.132 51.6886 9.49728 49.3931 9.49728ZM44.18 19.7792H46.3863C47.8487 19.7792 48.938 19.5037 49.6537 18.9527C50.3697 18.4016 50.8524 17.4819 51.1033 16.193C51.3434 14.9555 51.2341 14.0822 50.7753 13.5735C50.316 13.0648 49.3976 12.8103 48.0196 12.8103H45.5343L44.18 19.7792ZM49.3931 10.1827C51.4915 10.1827 53.0222 10.7334 53.9844 11.8348C54.9465 12.9362 55.2361 14.4736 54.8523 16.4474C54.6943 17.2605 54.427 18.0038 54.0508 18.6773C53.6742 19.3512 53.1824 19.9675 52.5746 20.5262C51.8503 21.204 51.0457 21.687 50.1603 21.9747C49.2749 22.2632 48.1472 22.4068 46.7763 22.4068H43.6693L42.8091 26.8337H39.1818L42.4181 10.1827H49.3931Z" fill="white"/>
</g>
</g>
<defs>
<radialGradient id="paint0_radial_303_689" cx="0" cy="0" r="1" gradientUnits="userSpaceOnUse" gradientTransform="translate(19.8783 6.75544) scale(41.4769 41.4769)">
<stop stop-color="#AEB2D5"/>
<stop offset="0.3" stop-color="#AEB2D5"/>
<stop offset="0.75" stop-color="#484C89"/>
<stop offset="1" stop-color="#484C89"/>
</radialGradient>
<clipPath id="clip0_303_689">
<rect width="65" height="35.0588" fill="white"/>
</clipPath>
</defs>
</svg>
