<svg width="82" height="65" viewBox="0 0 82 65" fill="none" xmlns="http://www.w3.org/2000/svg">
<g clip-path="url(#clip0_303_615)">
<path d="M8.9982 8.49461C8.8443 4.07524 12.2875 0 16.9417 0H64.6328C69.287 0 72.7302 4.07524 72.5763 8.49461C72.4285 12.7398 72.6205 18.239 74.0044 22.7229C75.3928 27.2207 77.7341 30.0636 81.5686 30.4289V34.5711C77.7341 34.9364 75.3928 37.7793 74.0044 42.2771C72.6205 46.761 72.4285 52.2602 72.5763 56.5056C72.7302 60.9248 69.287 65 64.6328 65H16.9417C12.2875 65 8.8443 60.9248 8.99836 56.5056C9.14604 52.2602 8.95407 46.761 7.56995 42.2771C6.18169 37.7793 3.83468 34.9364 0 34.5711V30.4289C3.83452 30.0636 6.18169 27.2207 7.56995 22.7229C8.95407 18.239 9.14604 12.7398 8.9982 8.49461Z" fill="url(#paint0_linear_303_615)"/>
<g filter="url(#filter0_d_303_615)">
<path d="M42.5531 49.7787C50.0882 49.7787 54.6288 46.0893 54.6288 40.004C54.6288 35.4041 51.389 32.074 46.5784 31.5468V31.3552C50.1127 30.7802 52.8862 27.498 52.8862 23.8325C52.8862 18.6098 48.7629 15.2076 42.4795 15.2076H28.342V49.7787H42.5531ZM33.84 19.5919H41.1542C45.1304 19.5919 47.3883 21.3648 47.3883 24.5751C47.3883 28.0011 44.7622 29.9177 40.0006 29.9177H33.84V19.5919ZM33.84 45.3945V34.0146H41.105C46.3083 34.0146 49.0082 35.9311 49.0082 39.6686C49.0082 43.406 46.3821 45.3945 41.4241 45.3945H33.84Z" fill="url(#paint1_linear_303_615)"/>
<path d="M42.5531 49.7787C50.0882 49.7787 54.6288 46.0893 54.6288 40.004C54.6288 35.4041 51.389 32.074 46.5784 31.5468V31.3552C50.1127 30.7802 52.8862 27.498 52.8862 23.8325C52.8862 18.6098 48.7629 15.2076 42.4795 15.2076H28.342V49.7787H42.5531ZM33.84 19.5919H41.1542C45.1304 19.5919 47.3883 21.3648 47.3883 24.5751C47.3883 28.0011 44.7622 29.9177 40.0006 29.9177H33.84V19.5919ZM33.84 45.3945V34.0146H41.105C46.3083 34.0146 49.0082 35.9311 49.0082 39.6686C49.0082 43.406 46.3821 45.3945 41.4241 45.3945H33.84Z" stroke="white"/>
</g>
</g>
<defs>
<filter id="filter0_d_303_615" x="11.842" y="2.70761" width="59.2867" height="67.5711" filterUnits="userSpaceOnUse" color-interpolation-filters="sRGB">
<feFlood flood-opacity="0" result="BackgroundImageFix"/>
<feColorMatrix in="SourceAlpha" type="matrix" values="0 0 0 0 0 0 0 0 0 0 0 0 0 0 0 0 0 0 127 0" result="hardAlpha"/>
<feOffset dy="4"/>
<feGaussianBlur stdDeviation="8"/>
<feColorMatrix type="matrix" values="0 0 0 0 0 0 0 0 0 0 0 0 0 0 0 0 0 0 0.15 0"/>
<feBlend mode="normal" in2="BackgroundImageFix" result="effect1_dropShadow_303_615"/>
<feBlend mode="normal" in="SourceGraphic" in2="effect1_dropShadow_303_615" result="shape"/>
</filter>
<linearGradient id="paint0_linear_303_615" x1="12.1204" y1="1.72027" x2="83.3975" y2="58.3001" gradientUnits="userSpaceOnUse">
<stop stop-color="#9013FE"/>
<stop offset="1" stop-color="#6610F2"/>
</linearGradient>
<linearGradient id="paint1_linear_303_615" x1="30.8284" y1="17.4831" x2="46.7608" y2="44.4281" gradientUnits="userSpaceOnUse">
<stop stop-color="white"/>
<stop offset="1" stop-color="#F1E5FC"/>
</linearGradient>
<clipPath id="clip0_303_615">
<rect width="81.5686" height="65" fill="white"/>
</clipPath>
</defs>
</svg>
