<svg width="65" height="65" viewBox="0 0 65 65" fill="none" xmlns="http://www.w3.org/2000/svg">
<g clip-path="url(#clip0_303_586)">
<path d="M65 0H0V65H65V0Z" fill="#F7DF1E"/>
<path d="M43.6635 50.7815C44.9728 52.9193 46.6762 54.4906 49.6889 54.4906C52.2198 54.4906 53.8365 53.2257 53.8365 51.4779C53.8365 49.3835 52.1754 48.6417 49.3897 47.4232L47.8627 46.768C43.4551 44.8902 40.527 42.5379 40.527 37.5648C40.527 32.9839 44.0174 29.4966 49.4722 29.4966C53.3557 29.4966 56.1476 30.8482 58.1595 34.3871L53.4032 37.441C52.356 35.5633 51.2262 34.8235 49.4722 34.8235C47.6832 34.8235 46.5493 35.9584 46.5493 37.441C46.5493 39.2734 47.6842 40.0152 50.3049 41.1502L51.8318 41.8043C57.0215 44.0298 59.9517 46.2986 59.9517 51.3995C59.9517 56.8987 55.6318 59.9114 49.8303 59.9114C44.1577 59.9114 40.493 57.2083 38.6998 53.6652L43.6635 50.7815ZM22.0866 51.3108C23.0461 53.0132 23.919 54.4525 26.0176 54.4525C28.0243 54.4525 29.2903 53.6673 29.2903 50.6144V29.8453H35.3982V50.6969C35.3982 57.0215 31.6901 59.9001 26.2776 59.9001C21.3871 59.9001 18.5549 57.3692 17.1146 54.3209L22.0866 51.3108Z" fill="black"/>
</g>
<defs>
<clipPath id="clip0_303_586">
<rect width="65" height="65" fill="white"/>
</clipPath>
</defs>
</svg>
