<svg width="65" height="35" viewBox="0 0 65 35" fill="none" xmlns="http://www.w3.org/2000/svg">
<g clip-path="url(#clip0_303_599)">
<path d="M1.63595 8.31586C-0.62705 11.5877 -0.354399 15.841 1.39057 19.3037C1.4451 19.3855 1.47236 19.4673 1.52689 19.5491C1.55416 19.6036 1.58142 19.6581 1.60869 19.7127C1.63595 19.7399 1.63595 19.7672 1.66322 19.7945C1.69048 19.849 1.71775 19.9035 1.74501 19.9581C1.79954 20.0399 1.85407 20.1489 1.9086 20.2307C1.93587 20.2852 1.96313 20.3398 1.9904 20.3943C2.04493 20.5034 2.12672 20.5852 2.18126 20.6942C2.20852 20.7487 2.23579 20.776 2.26305 20.8305C2.34485 20.9669 2.45391 21.1032 2.5357 21.2395C2.56297 21.2668 2.56297 21.294 2.59023 21.294C2.67203 21.4031 2.75382 21.5122 2.83562 21.6212C2.86288 21.6485 2.89015 21.703 2.94468 21.7303C3.02647 21.8393 3.10827 21.9211 3.19006 22.0302C3.21733 22.0575 3.24459 22.112 3.27186 22.1393C3.38092 22.2756 3.48998 22.3846 3.59904 22.521C3.59904 22.521 3.59904 22.521 3.59904 22.5482C3.7081 22.6573 3.81716 22.7936 3.92622 22.9027C3.95349 22.93 4.00802 22.9845 4.03528 23.0117C4.11708 23.0935 4.19887 23.1753 4.30793 23.2844C4.3352 23.3117 4.38973 23.3662 4.41699 23.3935C4.52605 23.5025 4.66238 23.6116 4.77144 23.7206C4.79871 23.7479 4.82597 23.7479 4.82597 23.7752C4.93503 23.857 5.04409 23.966 5.15315 24.0478C5.20768 24.0751 5.23495 24.1296 5.28948 24.1569C5.37127 24.2387 5.48033 24.2932 5.56213 24.375C5.61666 24.4023 5.67119 24.4568 5.69845 24.4841C5.80751 24.5659 5.91657 24.6204 5.99837 24.7022C6.02563 24.7294 6.08016 24.7567 6.10743 24.784L6.1347 24.8112C6.24376 24.8658 6.32555 24.9476 6.43461 25.0021C6.48914 25.0294 6.51641 25.0566 6.57094 25.0839C6.73453 25.193 6.87085 25.2748 7.03444 25.3838C7.08897 25.4111 7.11624 25.4383 7.17077 25.4656C7.27983 25.5201 7.41615 25.6019 7.52522 25.6565C7.57975 25.6837 7.66154 25.711 7.71607 25.7655C7.79787 25.8201 7.87966 25.8473 7.96146 25.9018C7.98872 25.9018 7.98872 25.9291 8.01599 25.9291C8.04325 25.9564 8.09778 25.9564 8.12505 25.9836C8.26137 26.0382 8.3977 26.12 8.53402 26.1745C8.56129 26.1745 8.58855 26.2018 8.61582 26.2018C8.77941 26.2563 8.91573 26.3381 9.07932 26.3926C9.10659 26.4199 9.16112 26.4199 9.18839 26.4472C9.32471 26.5017 9.4883 26.5562 9.62463 26.6107C9.65189 26.6107 9.65189 26.6107 9.67916 26.638C9.84275 26.6925 10.0063 26.7471 10.1699 26.8016C10.1972 26.8016 10.2517 26.8289 10.279 26.8289C10.4426 26.8834 10.6062 26.9379 10.797 26.9652C21.7849 28.9828 24.9749 20.367 24.9749 20.367C22.3574 23.8297 17.6133 24.7567 13.0873 23.7206C12.9237 23.6934 12.7601 23.6388 12.5965 23.5843C12.542 23.5843 12.5147 23.5571 12.4602 23.5571C12.2966 23.5025 12.133 23.448 11.9694 23.3935C11.9422 23.3935 11.9149 23.3662 11.9149 23.3662C11.7786 23.3117 11.6422 23.2571 11.4787 23.2026C11.4514 23.1753 11.4241 23.1753 11.3696 23.1481C11.206 23.0935 11.0697 23.0117 10.9061 22.9572C10.8788 22.9572 10.8516 22.93 10.8243 22.93C10.688 22.8754 10.5516 22.8209 10.4426 22.7391C10.4153 22.7118 10.3608 22.7118 10.3335 22.6846C10.2245 22.63 10.1427 22.5755 10.0336 22.521C9.97907 22.4937 9.89728 22.4392 9.84275 22.4119C9.73369 22.3574 9.59736 22.2756 9.4883 22.2211C9.46104 22.1938 9.40651 22.1665 9.37924 22.1665C9.21565 22.0847 9.05206 21.9757 8.91574 21.8666C8.86121 21.8393 8.83394 21.8121 8.77941 21.7848C8.67035 21.703 8.56129 21.6485 8.45223 21.5667C8.42496 21.5394 8.37043 21.5122 8.34317 21.4849C8.23411 21.4031 8.12505 21.3213 8.01599 21.2668C7.96146 21.2395 7.93419 21.185 7.87966 21.1577C7.7706 21.0759 7.68881 21.0214 7.60701 20.9396C7.55248 20.9123 7.52522 20.8851 7.47069 20.8305C7.36162 20.7215 7.2253 20.6397 7.11624 20.5306L7.08897 20.5034C6.95265 20.3943 6.84359 20.2852 6.70726 20.1762C6.68 20.1489 6.62547 20.1216 6.5982 20.0671C6.51641 19.9853 6.40735 19.9035 6.32555 19.7945C6.29829 19.7672 6.24376 19.7127 6.21649 19.6854C6.10743 19.5763 5.99837 19.4673 5.88931 19.331C5.88931 19.331 5.88931 19.331 5.86204 19.3037C5.75298 19.1674 5.64392 19.0583 5.53486 18.922C5.5076 18.8947 5.48033 18.8402 5.45307 18.8129C5.37127 18.7039 5.28948 18.6221 5.20768 18.513C5.18042 18.4857 5.15315 18.4312 5.12589 18.4039C5.04409 18.2949 4.93503 18.1586 4.85323 18.0222C2.34485 14.6141 1.4451 9.89723 3.46271 6.02559" fill="#0868AC"/>
<path d="M8.69757 5.56208C7.06167 7.93414 7.14346 11.0969 8.42492 13.6053C8.64304 14.0143 8.88843 14.4232 9.16108 14.8322C9.40647 15.1867 9.67912 15.5956 10.0063 15.8956C10.1154 16.0319 10.2517 16.1409 10.388 16.2773C10.4153 16.3045 10.4425 16.3318 10.4971 16.3863C10.6334 16.4954 10.7425 16.6317 10.8788 16.7408C10.8788 16.7408 10.8788 16.7408 10.906 16.7408C11.0424 16.8771 11.206 16.9862 11.3423 17.0952C11.3696 17.1225 11.3968 17.1497 11.4514 17.177C11.6149 17.2861 11.7513 17.3951 11.9149 17.5042C11.9967 17.5587 12.0512 17.586 12.133 17.6405C12.1602 17.6678 12.1875 17.6951 12.242 17.6951C12.3511 17.7768 12.4602 17.8314 12.5965 17.9132C12.6238 17.9132 12.6238 17.9404 12.651 17.9404C12.7601 17.995 12.8419 18.0495 12.9509 18.104C12.9782 18.1313 13.0327 18.1313 13.06 18.1586C13.1418 18.1858 13.1963 18.2404 13.2781 18.2676C13.2781 18.2676 13.3054 18.2676 13.3054 18.2949C13.4417 18.3767 13.6053 18.4312 13.7416 18.513C13.7689 18.5403 13.7961 18.5403 13.8507 18.5403C13.9597 18.5948 14.0961 18.6493 14.2051 18.6766C14.2597 18.7039 14.3142 18.7039 14.3687 18.7311C14.4778 18.7584 14.5868 18.8129 14.6959 18.8402C14.7504 18.8674 14.805 18.8674 14.8322 18.8947C14.9958 18.9492 15.1594 19.0038 15.323 19.031C23.7206 20.4488 25.6565 13.9052 25.6565 13.9052C23.8842 16.4409 20.4761 17.6678 16.8226 16.7135C16.659 16.659 16.4954 16.6317 16.3318 16.5772C16.2773 16.5499 16.2227 16.5499 16.1955 16.5226C16.0864 16.4954 15.9774 16.4409 15.8683 16.4136C15.8138 16.3863 15.7592 16.3863 15.7047 16.3591C15.5956 16.3045 15.4593 16.2773 15.3503 16.2227C15.323 16.1955 15.2957 16.1955 15.2412 16.1682C15.1049 16.1137 14.9413 16.0319 14.805 15.9501C14.7232 15.9228 14.6686 15.8683 14.5868 15.841C14.5323 15.8138 14.505 15.7865 14.4505 15.7865C14.3687 15.732 14.2597 15.6774 14.1779 15.6229C14.1506 15.6229 14.1233 15.5956 14.1233 15.5956C14.0143 15.5411 13.9052 15.4593 13.7961 15.3775C13.7689 15.3503 13.7416 15.323 13.6871 15.2957C13.6053 15.2412 13.5508 15.1867 13.469 15.1594C13.3054 15.0503 13.1691 14.9413 13.0055 14.8322C12.9782 14.8049 12.9237 14.7777 12.8964 14.7504C11.2878 13.4962 10.0336 11.7785 9.43373 9.81544C8.80664 7.79782 8.94296 5.50755 10.0336 3.65352" fill="#0868AC"/>
<path d="M14.6141 3.5172C13.6325 4.93498 13.5507 6.70721 14.2323 8.28859C14.9412 9.95176 16.3863 11.2605 18.0767 11.8876C18.1585 11.9148 18.213 11.9421 18.2948 11.9694C18.3221 11.9694 18.3494 11.9966 18.3766 11.9966C18.4857 12.0239 18.5675 12.0512 18.6766 12.0784C23.3662 12.9782 24.6203 9.67911 24.9748 9.18834C23.8569 10.797 22.0029 11.1787 19.6854 10.6061C19.4945 10.5516 19.3037 10.4971 19.1401 10.4425C18.9219 10.3607 18.7038 10.2789 18.4857 10.1699C18.0767 9.97903 17.695 9.73364 17.3406 9.46099C15.2684 7.90688 14.0142 4.93498 15.3502 2.50839" fill="#0868AC"/>
<path d="M40.6522 6.73448H36.0444C35.799 6.73448 35.5809 6.92534 35.5264 7.14346L35.0901 9.07928L34.6539 11.0151C34.5993 11.2332 34.7629 11.4241 34.9811 11.4241H39.6161C39.8615 11.4241 40.0796 11.2332 40.1342 11.0151L40.5431 9.07928L40.9521 7.14346C41.0339 6.89807 40.8976 6.73448 40.6522 6.73448Z" fill="#131B28"/>
<path d="M39.3163 12.7055H34.6812C34.4358 12.7055 34.2177 12.8964 34.1632 13.1145L33.5088 16.0046L32.8545 18.8947C32.7999 19.1128 32.7181 19.4945 32.6636 19.7127L32.0365 22.6573L31.4094 25.6019C31.3549 25.8201 31.2731 26.2018 31.1913 26.4199C31.1913 26.4199 30.3188 28.9828 28.8738 28.9555C28.8192 28.9555 28.7647 28.9555 28.6829 28.9555C27.974 28.9555 27.4287 28.9283 27.4287 28.9283C27.1833 28.9283 26.9652 29.1191 26.9107 29.3372L26.4472 31.3549L25.9564 33.3725C25.9019 33.5906 26.0382 33.7815 26.2836 33.7815C27.1015 33.7815 28.9556 33.8087 30.0734 33.8087C33.6997 33.8087 35.6355 31.7911 36.8624 26.0109L38.3075 19.3582L39.6435 13.1145C39.698 12.8964 39.5617 12.7055 39.3163 12.7055Z" fill="#131B28"/>
<path d="M58.7563 13.7689L58.6472 14.1779L57.7202 17.4224L56.8205 20.6669C56.7659 20.8851 56.5206 21.0759 56.2752 21.0759H51.4493C47.7685 21.0759 46.896 18.2131 47.7685 13.987C48.6682 9.65185 50.4132 6.97987 54.0122 6.70722C58.9744 6.29824 59.956 9.78817 58.7563 13.7689ZM62.0826 20.8305C62.0826 20.8305 64.3729 15.2957 64.8909 12.1057C65.5998 7.82509 63.4459 1.60864 55.1846 1.60864C46.9505 1.60864 43.3788 7.52517 42.0155 13.987C40.6523 20.4761 42.4518 26.1745 50.6313 26.12L57.0931 26.0927L63.1187 26.0654C63.3641 26.0654 63.5822 25.8746 63.6368 25.6565L64.7001 21.6485C64.7546 21.4304 64.6183 21.2395 64.3729 21.2395H63.3641H62.3553C62.1644 21.2395 62.0554 21.1032 62.0554 20.9396C62.0554 20.8851 62.0554 20.8578 62.0826 20.8305Z" fill="#131B28"/>
</g>
<defs>
<clipPath id="clip0_303_599">
<rect width="65" height="34.9811" fill="white"/>
</clipPath>
</defs>
</svg>
